<svg width="483" height="483" viewBox="0 0 483 483" fill="none" xmlns="http://www.w3.org/2000/svg">
<path d="M241.5 241.5V0C368.989 0 474.518 99.0988 482.523 226.336L241.5 241.5Z" fill="#FF5925"/>
<path d="M241.5 241.5L482.523 226.336C483.159 236.435 483.159 246.564 482.523 256.664L241.5 241.5Z" fill="#FFCFC0"/>
<path d="M241.5 241.5L482.523 256.664C477.669 333.817 436.173 403.983 370.902 445.405L241.5 241.5Z" fill="#FFA285"/>
<path d="M241.5 241.5L370.902 445.405C291.915 495.532 191.084 495.532 112.098 445.405L241.5 241.5Z" fill="#FF8F6B"/>
<path d="M241.499 241.5L112.097 445.405C51.3259 406.839 10.9242 343.176 1.90332 271.768L241.499 241.5Z" fill="#FF7145"/>
<path d="M241.5 241.5L1.90431 271.768C-1.91058 241.57 0.0175607 210.923 7.58717 181.441L241.5 241.5Z" fill="#ED5425"/>
<path d="M241.5 241.5L7.58691 181.441C35.0038 74.6597 131.255 0 241.5 0V241.5Z" fill="#C53B10"/>
<circle cx="241.45" cy="241.45" r="171.45" fill="#131313"/>
<path d="M257.685 188.167L259.489 189.39C264.127 192.61 268.25 196.474 271.728 200.981C274.369 204.394 275.464 208.708 274.691 212.765C274.112 215.985 272.759 217.916 270.118 219.397C269.409 219.784 269.216 219.784 269.216 219.784C269.216 219.784 269.023 219.719 268.765 218.818C265.093 206.068 258.33 195.83 248.667 188.296C248.41 188.103 241.839 182.758 231.661 179.538C229.471 178.83 224.833 178.959 222.837 179.152L216.653 179.796L222.837 180.504C222.965 180.504 234.431 181.921 243.965 189.39C253.048 196.023 259.167 205.617 262.646 218.625C262.774 219.075 262.646 219.526 262.323 219.912C262.001 220.234 261.55 220.428 261.1 220.363C259.167 220.106 257.235 219.397 255.302 218.303C249.118 214.825 243.128 210.704 237.33 206.712C235.011 205.102 232.628 203.492 230.244 201.947L228.892 201.046C225.864 198.985 222.708 196.86 219.422 195.572L219.1 195.443H219.036C209.374 192.674 206.282 193.125 202.996 193.64L202.095 193.769C195.717 194.606 185.54 202.462 185.089 202.849L180.064 206.712L185.862 203.943C203.834 195.315 218.778 201.561 218.907 201.625L219.229 201.754C219.551 201.947 219.938 202.076 220.26 202.269C225.735 205.231 230.889 208.966 235.784 212.572C238.039 214.246 240.422 215.985 242.805 217.594C247.121 220.556 251.566 223.583 256.462 225.901C261.1 228.09 265.093 228.734 268.894 228.026C274.369 226.996 278.749 221.072 279.136 214.568C280.167 217.337 281.519 221.072 282.035 223.518C282.292 224.742 282.421 226.03 282.55 227.318C282.679 228.284 282.743 229.249 282.936 230.215C283.065 230.924 282.936 231.181 282.872 231.246C282.743 231.439 282.292 231.503 281.648 231.503C271.213 231.889 260.777 232.34 250.278 232.791L242.29 233.113C242.226 233.113 242.161 233.113 242.097 233.113C241.646 233.113 240.873 233.049 240.358 234.014L239.778 234.98L242.87 235.173C244.223 235.302 245.575 235.367 246.928 235.431L259.94 235.946C267.155 236.268 274.369 236.526 281.584 236.848C281.777 236.848 281.97 236.848 282.163 236.848C282.357 236.848 282.743 236.783 282.872 236.848C282.872 236.848 282.936 236.976 282.936 237.492C282.421 244.188 281.004 250.113 278.685 255.457L278.492 253.59C277.912 248.567 276.108 244.961 273.145 242.901C270.182 240.84 266.124 240.389 261.164 241.613C255.624 242.965 250.986 246.12 246.864 248.889C243.192 251.336 239.52 253.976 235.977 256.487C232.821 258.741 229.536 261.059 226.315 263.249C223.61 265.052 221.162 266.533 218.843 267.692C217.812 268.142 203.19 273.68 185.797 265.309L180 262.54L185.089 266.468C185.54 266.79 195.717 274.646 202.095 275.548C206.088 276.063 208.794 276.256 219.422 273.165C222.386 272.006 225.413 270.461 228.376 268.464C230.889 266.79 233.336 265.116 235.849 263.442C242.032 259.256 248.474 254.942 254.98 251.078C257.235 249.726 259.682 248.953 262.452 248.696C262.581 248.696 262.71 248.76 262.839 248.825C262.903 248.889 262.968 248.953 262.903 249.147C262.517 251.529 261.808 253.783 261.035 255.843C257.621 265.374 252.468 272.843 245.318 278.638L245.189 278.703C235.72 286.043 224.318 287.46 224.189 287.46L218.07 288.168L226.508 289.07C227.088 289.134 227.732 289.134 228.312 289.134C229.987 289.134 231.533 288.877 233.079 288.426C243.256 285.206 249.891 279.926 250.149 279.669C257.235 273.873 262.71 266.146 266.575 256.745C267.606 254.169 268.314 251.98 268.829 249.984C268.958 249.469 269.087 249.34 269.023 249.34C269.151 249.34 269.345 249.404 269.731 249.597C271.921 250.628 273.403 252.173 274.047 254.169C275.593 258.934 275.271 262.54 272.888 265.76C269.151 270.847 264.771 275.161 259.94 278.574L258.201 279.797H296.593V188.167H257.685Z" fill="#F1F1F1"/>
</svg>
