<svg width="223" height="24" viewBox="0 0 223 24" fill="none" xmlns="http://www.w3.org/2000/svg">
<path fill-rule="evenodd" clip-rule="evenodd" d="M147.506 16.9665C147.506 17.0232 147.535 17.0798 147.592 17.1365C147.62 17.1931 147.678 17.2215 147.763 17.2498H150.052V19.9127H147.649C147.105 19.9127 146.648 19.771 146.219 19.5161C145.789 19.2611 145.446 18.9212 145.189 18.4962C144.931 18.0713 144.788 17.5897 144.788 17.0798V4.16211H147.506V16.9665ZM85.5097 12.6323H83.3927V4.19043H80.6748V19.8843H83.3927V15.3235H85.5097L89.7725 19.8843H92.6334V19.1478L87.8843 13.9637L92.662 8.77961V8.07141H89.7725L85.5097 12.6323ZM50.1779 11.8964C50.2351 11.7548 50.2923 11.5848 50.3209 11.4148C50.3495 11.2449 50.3495 11.0749 50.3495 10.9049V8.04378C50.3495 7.53387 50.2065 7.05229 49.949 6.62736C49.7201 6.20244 49.3768 5.8625 48.9191 5.57921C48.49 5.32426 48.0036 5.18262 47.4886 5.18262H36.1309V19.8567H48.0894C48.6044 19.8567 49.0907 19.715 49.5199 19.4601C49.949 19.2051 50.3209 18.8652 50.5784 18.4403C50.8359 18.0153 50.9789 17.5338 50.9789 17.0239V13.8794C50.9789 13.5395 50.8931 13.1995 50.7501 12.8596C50.607 12.5196 50.4068 12.208 50.1779 11.8964ZM48.2325 16.9389C48.2325 16.9955 48.2039 17.0522 48.1466 17.1088C48.0894 17.1655 48.0322 17.1938 47.975 17.1938H39.1062C39.049 17.1938 38.9918 17.1655 38.9345 17.1088C38.8773 17.0522 38.8487 16.9955 38.8487 16.9389V14.2477V14.0494V10.82V9.88512V8.15709C38.8487 8.10043 38.8773 8.04378 38.9345 7.98712C38.9918 7.93046 39.049 7.90213 39.1062 7.90213H47.3742C47.4314 7.90213 47.4886 7.93046 47.5459 7.98712C47.5745 8.04378 47.6031 8.10043 47.6031 8.15709V10.82C47.6031 10.8766 47.5745 10.9333 47.5459 10.9899C47.5172 11.0466 47.46 11.0749 47.3742 11.0749H42.0529L39.3065 13.7944H47.9464C48.0036 13.7944 48.0894 13.8228 48.118 13.8794C48.1753 13.9361 48.2039 13.9927 48.2039 14.0494V16.9389H48.2325ZM63.8534 8.43957C63.4242 8.18461 62.9379 8.04297 62.4229 8.04297H53.125V10.7058H62.3085C62.3657 10.7058 62.4229 10.7342 62.4801 10.7908C62.5374 10.8475 62.566 10.9041 62.566 10.9608V12.6038H53.125V17.0514C53.125 17.5613 53.2394 18.0429 53.4969 18.4678C53.7544 18.8927 54.0977 19.2326 54.5268 19.4876C54.956 19.7426 55.4423 19.8842 55.9573 19.8842H65.2552V10.8758C65.2552 10.3659 65.1408 9.88431 64.8833 9.45938C64.6258 9.03446 64.2825 8.69452 63.8534 8.43957ZM62.5374 17.2213H56.0717C56.0145 17.2213 55.9573 17.193 55.9001 17.1364C55.8429 17.0797 55.8142 17.023 55.8142 16.9664V15.0401H62.5374V17.2213ZM76.1837 8.04297C76.6986 8.04297 77.185 8.18461 77.6141 8.43957C78.0433 8.69452 78.3866 9.03446 78.644 9.40273C78.9015 9.82765 79.0446 10.3092 79.0446 10.8191V11.2724H76.3267V10.9325C76.3267 10.8758 76.2981 10.8191 76.2409 10.7625C76.1837 10.7058 76.1264 10.6775 76.0692 10.6775H69.8325C69.7753 10.6775 69.718 10.7058 69.6608 10.7625C69.6036 10.8191 69.575 10.8758 69.575 10.9325V12.3489C69.575 12.4055 69.6036 12.4622 69.6608 12.5188C69.718 12.5755 69.7753 12.6038 69.8325 12.6038H76.1837C76.6986 12.6038 77.185 12.7455 77.6141 13.0004C78.0433 13.2554 78.3866 13.5953 78.644 14.0202C78.9015 14.4452 79.0446 14.9267 79.0446 15.4367V17.0797C79.0446 17.6179 78.9015 18.0712 78.644 18.4961C78.3866 18.921 78.0433 19.261 77.6141 19.5159C77.2136 19.7709 76.7272 19.9125 76.1837 19.9125H69.7752C69.2317 19.9125 68.7739 19.7709 68.3448 19.5159C67.9157 19.261 67.5724 18.921 67.3149 18.4961C67.0574 18.0712 66.9144 17.5896 66.9144 17.0797V16.6264H69.6036V17.023C69.6036 17.0797 69.6322 17.1364 69.6894 17.193C69.7466 17.2497 69.8039 17.278 69.8611 17.278H76.0978C76.1551 17.278 76.2123 17.2497 76.2695 17.193C76.3267 17.1364 76.3553 17.0797 76.3553 17.023V15.6066C76.3553 15.55 76.3267 15.4933 76.2695 15.4367C76.2123 15.38 76.1551 15.3517 76.0978 15.3517H69.7466C69.2031 15.3517 68.7453 15.21 68.3162 14.9551C67.8871 14.7001 67.5437 14.3602 67.2863 13.9353C67.0288 13.5103 66.8857 13.0288 66.8857 12.5188V10.8758C66.8857 10.3376 67.0288 9.88431 67.2863 9.45938C67.5437 9.03446 67.8871 8.69452 68.3162 8.43957C68.7453 8.18461 69.2317 8.04297 69.7466 8.04297H76.1837ZM103.19 8.04293C103.705 8.04293 104.192 8.18457 104.621 8.43952C105.05 8.69448 105.393 9.03442 105.679 9.45934C105.937 9.88427 106.051 10.3658 106.051 10.8758V15.295H97.4401L99.8718 12.8871H103.334V10.9607C103.334 10.9041 103.305 10.8474 103.248 10.7908C103.19 10.7341 103.133 10.7058 103.076 10.7058H96.8679C96.8107 10.7058 96.7535 10.7341 96.6962 10.7908C96.639 10.8474 96.6104 10.9041 96.6104 10.9607V11.8106V12.9437V15.3516V16.1732V16.9947C96.6104 17.0513 96.639 17.108 96.6962 17.1646C96.7535 17.2213 96.8107 17.2496 96.8679 17.2496H106.051V19.9125H96.7535C96.2099 19.9125 95.7521 19.7708 95.323 19.5159C94.8939 19.2609 94.5506 18.921 94.2931 18.4961C94.0356 18.0711 93.8926 17.5896 93.8926 17.0797V10.8758C93.8926 10.3375 94.0356 9.88427 94.2931 9.45934C94.5506 9.03442 94.8939 8.69448 95.323 8.43952C95.7521 8.18457 96.2385 8.04293 96.7535 8.04293H103.19ZM110.887 4.41699H108.197V17.0514C108.197 17.5613 108.34 18.0429 108.598 18.4678C108.855 18.8928 109.199 19.2327 109.628 19.4877C110.057 19.7426 110.515 19.8843 111.058 19.8843H115.578V17.2214H111.173C111.115 17.2214 111.058 17.1931 111.001 17.1364C110.944 17.0797 110.915 17.0231 110.915 16.9664V10.7342H115.578V8.07135H110.915V4.41699H110.887ZM126.679 8.04308C127.194 8.04308 127.68 8.18472 128.109 8.43968C128.538 8.69463 128.882 9.03457 129.139 9.45949C129.397 9.88442 129.511 10.366 129.511 10.8759V17.0515C129.511 17.5897 129.397 18.043 129.139 18.4679C128.882 18.8928 128.538 19.2328 128.109 19.4877C127.68 19.7427 127.194 19.8843 126.679 19.8843H117.381V4.19043H120.07V7.90144V8.07141V10.9609V12.2357V16.9665C120.07 17.0232 120.099 17.0798 120.156 17.1365C120.213 17.1931 120.27 17.2214 120.328 17.2214H126.564C126.622 17.2214 126.679 17.1931 126.736 17.1365C126.793 17.0798 126.822 17.0232 126.822 16.9665V10.9609C126.822 10.9042 126.793 10.8476 126.736 10.7909C126.679 10.7343 126.622 10.7059 126.564 10.7059H121.615L124.304 8.04308H126.679ZM141.67 8.43957C141.241 8.18461 140.754 8.04297 140.239 8.04297H130.941V10.7058H140.125C140.182 10.7058 140.239 10.7342 140.297 10.7908C140.354 10.8475 140.382 10.9041 140.382 10.9608V12.6038H130.941V17.0514C130.941 17.5613 131.056 18.0429 131.313 18.4678C131.571 18.8927 131.914 19.2326 132.343 19.4876C132.772 19.7426 133.259 19.8842 133.774 19.8842H143.072V10.8758C143.072 10.3659 142.957 9.88431 142.7 9.45938C142.442 9.03446 142.099 8.69452 141.67 8.43957ZM140.354 17.2213H133.888C133.831 17.2213 133.774 17.193 133.716 17.1364C133.659 17.0797 133.631 17.023 133.631 16.9664V15.0401H140.354V17.2213ZM154.429 17.1365C154.371 17.0798 154.343 17.0232 154.343 16.9665V4.16211H151.625V17.0798C151.625 17.5897 151.768 18.0713 152.026 18.4962C152.283 18.9212 152.626 19.2611 153.055 19.5161C153.485 19.771 153.942 19.9127 154.486 19.9127H156.889V17.2498H154.6C154.543 17.2215 154.486 17.1931 154.429 17.1365ZM158.749 8.07227L163.47 16.6557L168.162 8.07227H171.28L164.671 19.8852H162.211L155.631 8.07227H158.749ZM182.638 8.43952C182.208 8.18457 181.722 8.04293 181.207 8.04293H174.77C174.255 8.04293 173.769 8.18457 173.34 8.43952C172.91 8.69448 172.567 9.03442 172.31 9.45934C172.052 9.88427 171.909 10.3375 171.909 10.8758V17.0797C171.909 17.5896 172.052 18.0711 172.31 18.4961C172.567 18.921 172.91 19.2609 173.34 19.5159C173.769 19.7708 174.226 19.9125 174.77 19.9125H184.039V17.2496H174.856C174.799 17.2496 174.741 17.2213 174.684 17.1646C174.627 17.108 174.598 17.0513 174.598 16.9947V16.1732V15.3516V12.9437V11.8106V10.9607C174.598 10.9041 174.627 10.8474 174.684 10.7908C174.741 10.7341 174.799 10.7058 174.856 10.7058H181.093C181.15 10.7058 181.207 10.7341 181.264 10.7908C181.322 10.8474 181.35 10.9041 181.35 10.9607V12.8871H177.888L175.457 15.295H184.039V10.8758C184.039 10.3658 183.925 9.88427 183.667 9.45934C183.41 9.03442 183.067 8.69448 182.638 8.43952ZM186.471 9.45938C186.728 9.03446 187.072 8.69452 187.501 8.43957C187.93 8.18461 188.388 8.0713 188.903 8.04297H195.54V10.7058H189.017C188.96 10.7058 188.903 10.7342 188.845 10.7908C188.788 10.8475 188.76 10.9041 188.76 10.9608V19.8842H186.07V10.8758C186.07 10.3376 186.213 9.88431 186.471 9.45938ZM207.757 8.43957C207.328 8.18461 206.841 8.04297 206.326 8.04297H199.889C199.374 8.04297 198.888 8.18461 198.459 8.43957C198.03 8.69452 197.686 9.03446 197.429 9.45938C197.171 9.88431 197.028 10.3376 197.028 10.8758V12.5188C197.028 13.0288 197.171 13.5103 197.429 13.9353C197.686 14.3602 198.03 14.7001 198.459 14.9551C198.888 15.21 199.346 15.3517 199.889 15.3517H206.24C206.298 15.3517 206.355 15.38 206.412 15.4367C206.469 15.4933 206.498 15.55 206.498 15.6066V17.023C206.498 17.0797 206.469 17.1364 206.412 17.193C206.355 17.2497 206.298 17.278 206.24 17.278H200.004C199.946 17.278 199.889 17.2497 199.832 17.193C199.775 17.1364 199.746 17.0797 199.746 17.023V16.6264H197.057V17.0797C197.057 17.5896 197.2 18.0712 197.457 18.4961C197.715 18.921 198.058 19.261 198.487 19.5159C198.917 19.7709 199.374 19.9125 199.918 19.9125H206.355C206.898 19.9125 207.385 19.7709 207.785 19.5159C208.214 19.261 208.558 18.921 208.815 18.4961C209.073 18.0712 209.216 17.6179 209.216 17.0797V15.4367C209.216 14.9267 209.073 14.4452 208.815 14.0202C208.558 13.5953 208.214 13.2554 207.785 13.0004C207.356 12.7455 206.87 12.6038 206.355 12.6038H200.004C199.946 12.6038 199.889 12.5755 199.832 12.5188C199.775 12.4622 199.746 12.4055 199.746 12.3489V10.9325C199.746 10.8758 199.775 10.8191 199.832 10.7625C199.889 10.7058 199.946 10.6775 200.004 10.6775H206.24C206.298 10.6775 206.355 10.7058 206.412 10.7625C206.469 10.8191 206.498 10.8758 206.498 10.9325V11.2724H209.216V10.8191C209.216 10.3092 209.073 9.82765 208.815 9.40273C208.529 9.03446 208.186 8.69452 207.757 8.43957ZM213.507 12.9154V15.3233V16.1732V16.9947C213.507 17.0514 213.535 17.108 213.592 17.1647C213.65 17.2213 213.707 17.2497 213.764 17.2497H222.948V19.9125H213.678C213.135 19.9125 212.677 19.7709 212.248 19.5159C211.819 19.261 211.475 18.921 211.218 18.4961C210.96 18.0712 210.817 17.5896 210.817 17.0797V10.8758C210.817 10.3376 210.96 9.88431 211.218 9.45938C211.475 9.03446 211.819 8.69452 212.248 8.43957C212.677 8.18461 213.163 8.04297 213.678 8.04297H220.115C220.63 8.04297 221.117 8.18461 221.546 8.43957C221.975 8.69452 222.318 9.03446 222.576 9.45938C222.833 9.88431 222.948 10.3659 222.948 10.8758V15.295H214.365L216.797 12.8871H220.258V10.9608C220.258 10.9041 220.23 10.8475 220.173 10.7908C220.115 10.7342 220.058 10.7058 220.001 10.7058H213.764C213.707 10.7058 213.65 10.7342 213.592 10.7908C213.535 10.8475 213.507 10.9041 213.507 10.9608V11.8106V12.9154Z" fill="white"/>
<path d="M17.0349 1.9925L17.4261 2.26088C18.4494 2.94675 19.3523 3.81155 20.1048 4.7658C20.6766 5.51131 20.9174 6.43575 20.7669 7.33036C20.6465 8.01623 20.3455 8.46354 19.7737 8.76174C19.6232 8.8512 19.5931 8.8512 19.563 8.8512C19.563 8.8512 19.5329 8.82138 19.4727 8.64246C18.6902 5.86916 17.1854 3.66245 15.0786 2.02232C15.0184 1.96268 13.5737 0.829501 11.3466 0.11381C10.865 -0.035292 9.84171 -0.00547249 9.42035 0.024348L8.06598 0.17345L9.42035 0.322553C9.45045 0.322553 11.9786 0.650578 14.0553 2.26088C16.0417 3.72208 17.396 5.7797 18.1485 8.61264C18.1786 8.7021 18.1485 8.82138 18.0883 8.88103C18.0281 8.97049 17.9077 9.00031 17.8174 8.97049C17.396 8.91084 16.9747 8.76174 16.5533 8.52318C15.199 7.74785 13.8747 6.88305 12.6106 6.01826C12.099 5.66041 11.5873 5.30257 11.0456 4.97454L10.7446 4.7658C10.0825 4.31849 9.39025 3.87119 8.66792 3.57298L8.57763 3.54316C6.47085 2.94675 5.77862 3.03621 5.05629 3.1555L4.84561 3.18532C3.43105 3.36424 1.20388 5.09383 1.11359 5.15347L0 6.01826L1.26407 5.42185C5.20677 3.54316 8.48734 4.9149 8.51744 4.9149L8.57763 4.94472C8.66792 4.97454 8.72812 5.00436 8.81841 5.06401C10.0223 5.69024 11.1359 6.52521 12.2194 7.30054C12.731 7.65839 13.2427 8.04605 13.7543 8.4039C14.6873 9.05995 15.6805 9.716 16.764 10.2229C17.7873 10.7001 18.6601 10.8492 19.5028 10.7001C20.7067 10.4913 21.6698 9.17923 21.7601 7.77767C22.0009 8.37408 22.2717 9.17923 22.3921 9.716C22.4523 9.98438 22.4824 10.2826 22.5125 10.551C22.5426 10.7597 22.5727 10.9685 22.6028 11.1772C22.6329 11.3263 22.6028 11.3859 22.6028 11.4158C22.5727 11.4456 22.4824 11.4754 22.3319 11.4754C20.0446 11.5649 17.7572 11.6543 15.4397 11.7438L13.6941 11.8034H13.664C13.5737 11.8034 13.3931 11.8034 13.2728 11.9824L13.1524 12.1911L13.8145 12.2507C14.1155 12.2806 14.4164 12.2806 14.7174 12.3104L17.5766 12.4297C19.1718 12.4893 20.7368 12.5489 22.3319 12.6384C22.362 12.6384 22.4222 12.6384 22.4523 12.6384C22.4824 12.6384 22.5727 12.6384 22.6028 12.6384C22.6028 12.6384 22.6329 12.6682 22.6028 12.7577C22.4824 14.2189 22.1815 15.5012 21.6698 16.6642L21.6096 16.2467C21.4892 15.1433 21.098 14.368 20.4358 13.9207C19.7737 13.4734 18.9009 13.3839 17.8174 13.6523C16.6135 13.9505 15.5902 14.6364 14.6873 15.2328C13.8747 15.7696 13.0922 16.3361 12.3097 16.8729C11.6174 17.35 10.8951 17.857 10.1728 18.3341C9.57083 18.7218 9.05918 19.0498 8.51744 19.2884C8.27666 19.3778 5.08639 20.6005 1.26407 18.7814L0 18.185L1.11359 19.0498C1.20388 19.1094 3.46115 20.839 4.84561 21.018C5.71842 21.1372 6.32036 21.1671 8.63783 20.511C9.29996 20.2724 9.96209 19.9146 10.5941 19.4971C11.1359 19.1393 11.6776 18.7814 12.2194 18.3938C13.5737 17.4693 14.9883 16.5449 16.4329 15.7099C16.9145 15.4117 17.4562 15.2626 18.0582 15.203C18.0883 15.203 18.1184 15.203 18.1485 15.2328C18.1485 15.2328 18.1786 15.2626 18.1786 15.2924C18.0883 15.7994 17.9378 16.3063 17.7873 16.7536C17.0349 18.8411 15.9213 20.4514 14.3262 21.7038L14.2961 21.7336C12.2194 23.3141 9.72132 23.6422 9.69122 23.6422L8.33686 23.7913L10.2029 23.9702C10.3233 23.9702 10.4737 24 10.5941 24C10.9553 24 11.3165 23.9404 11.6475 23.8509C13.8747 23.165 15.3494 22.002 15.4096 21.9424C16.9747 20.6899 18.1786 18.9902 19.0213 16.9624C19.2621 16.3958 19.4125 15.9187 19.5028 15.5012C19.5329 15.3819 19.563 15.3521 19.563 15.3521C19.5931 15.3521 19.6232 15.3819 19.7135 15.4117C20.1951 15.6204 20.5261 15.9783 20.6465 16.3958C20.9776 17.4395 20.9174 18.2148 20.3756 18.9305C19.563 20.0339 18.5999 20.9583 17.5465 21.7038L17.1553 21.9722H25.5824V1.9925H17.0349Z" fill="#FF5925"/>
</svg>
